<svg xmlns="http://www.w3.org/2000/svg" viewBox="0 0 30.67 30.67"><defs><style>.cls-1{fill:#ed1c27;fill-rule:evenodd;}</style></defs><title>Asset 1</title><g id="Layer_2" data-name="Layer 2"><g id="Layer_1-2" data-name="Layer 1"><path class="cls-1" d="M16.64,21.8v1.45c0,.34-.12.55-.55.55H14.6c-.44,0-.55-.21-.55-.55V21.76c-2-.42-3.81-1.74-3.81-3.91,0-.44.11-.54.55-.54h1.85c.44,0,.65.06.69.54a1.32,1.32,0,0,0,.36.78,2.52,2.52,0,0,0,1.87.63c1,0,1.87-.23,1.87-1.29s-1.7-1.09-3.32-1.6c-1.92-.61-3.7-1.37-3.7-3.79,0-2.14,1.66-3.32,3.64-3.68V7.42c0-.35.11-.55.55-.55h1.49c.44,0,.55.21.55.55V8.95c1.85.38,3.47,1.49,3.47,3.45,0,.46-.11.53-.55.53H17.69c-.36,0-.42-.27-.52-.52a1.31,1.31,0,0,0-.4-.57,2.53,2.53,0,0,0-1.62-.52c-.63,0-1.68.25-1.68,1.11,0,1.16,2.8,1.58,3.57,1.89,1.37.42,3.4,1,3.4,3.56,0,2.29-1.54,3.59-3.79,3.91"/><path class="cls-1" d="M29.24,11H23a1.44,1.44,0,0,1,0-2.87h2.48A12.44,12.44,0,0,0,2.88,15.34a1.44,1.44,0,1,1-2.87,0A15.32,15.32,0,0,1,27.8,6.43V3.83a1.44,1.44,0,0,1,2.88,0V9.59A1.44,1.44,0,0,1,29.24,11M1.44,19.65H7.67a1.44,1.44,0,1,1,0,2.88H5.17A12.45,12.45,0,0,0,27.8,15.34a1.44,1.44,0,1,1,2.88,0,15.31,15.31,0,0,1-27.8,8.89v2.61a1.44,1.44,0,1,1-2.87,0V21.09a1.44,1.44,0,0,1,1.44-1.44"/></g></g></svg>