<svg id="Capa_1" data-name="Capa 1" xmlns="http://www.w3.org/2000/svg" viewBox="0 0 123.03 53.23"><defs><style>.cls-1{fill:#dd141d;isolation:isolate;}.cls-2{fill:#fff;}</style></defs><title>Sin título-1</title><path class="cls-1" d="M122.55,30.74a2.54,2.54,0,0,1-.6,3.56A105.64,105.64,0,0,1,61.42,53.23,105.75,105.75,0,0,1,1.08,34.43a2.55,2.55,0,0,1-.58-3.6L22.71.75c12,8.53,22.91,12.71,38.47,12.71,14.28,0,27-4.24,39.46-13.46Z"/><path class="cls-2" d="M43.92,38.69l-.61,3.41L42.65,42l1.49-8.4,2.44.43a2.37,2.37,0,0,1,1.64,1,2.61,2.61,0,0,1,.31,2,2.58,2.58,0,0,1-.94,1.73,2.42,2.42,0,0,1-1.9.32Zm.11-.62,1.78.32a1.69,1.69,0,0,0,1.37-.26,1.91,1.91,0,0,0,.69-1.28,2,2,0,0,0-.21-1.47,1.66,1.66,0,0,0-1.18-.74l-1.79-.31Z"/><path class="cls-2" d="M52.5,43.42a3.93,3.93,0,0,1,0-.89,2,2,0,0,1-.82.65,2.11,2.11,0,0,1-1,.16,1.71,1.71,0,0,1-1.22-.6,1.81,1.81,0,0,1-.32-1.36,1.85,1.85,0,0,1,.8-1.4,2.58,2.58,0,0,1,1.8-.36l1.08.12.1-.88a1.25,1.25,0,0,0-.23-1,1.47,1.47,0,0,0-1-.4,1.45,1.45,0,0,0-1,.24,1.2,1.2,0,0,0-.48.86l-.65-.07a1.74,1.74,0,0,1,.73-1.25,2.07,2.07,0,0,1,1.52-.38,2,2,0,0,1,1.38.63,1.88,1.88,0,0,1,.34,1.45L53.17,42a4.51,4.51,0,0,0,0,1.41v.07Zm-1.72-.7a1.75,1.75,0,0,0,1-.19,1.69,1.69,0,0,0,.73-.72l.16-1.53-1-.11a2,2,0,0,0-1.38.25,1.3,1.3,0,0,0-.56,1A1,1,0,0,0,50.78,42.72Z"/><path class="cls-2" d="M58.35,42.23A.93.93,0,0,0,58,41.5a4.58,4.58,0,0,0-1.12-.73,6.29,6.29,0,0,1-1.1-.66,1.61,1.61,0,0,1-.45-.55,1.52,1.52,0,0,1-.12-.69,1.55,1.55,0,0,1,.58-1.18,2,2,0,0,1,1.39-.42,2,2,0,0,1,1.42.58,1.76,1.76,0,0,1,.47,1.37l-.65,0a1.16,1.16,0,0,0-.33-.91,1.32,1.32,0,0,0-.94-.4,1.34,1.34,0,0,0-.92.25,1,1,0,0,0-.38.75.84.84,0,0,0,.23.63,5.39,5.39,0,0,0,1.08.7,6.58,6.58,0,0,1,1.19.7,2,2,0,0,1,.48.58,1.47,1.47,0,0,1,.13.74,1.53,1.53,0,0,1-.6,1.22,2.14,2.14,0,0,1-1.46.39,2.18,2.18,0,0,1-1.5-.59,1.71,1.71,0,0,1-.52-1.35l.66,0a1.26,1.26,0,0,0,.35.93A1.84,1.84,0,0,0,58,43,1,1,0,0,0,58.35,42.23Z"/><path class="cls-2" d="M64.11,43.81a4.76,4.76,0,0,1-.13-.88,2,2,0,0,1-.74.74,2.06,2.06,0,0,1-1,.28A1.69,1.69,0,0,1,61,43.5a1.75,1.75,0,0,1-.47-1.31,1.84,1.84,0,0,1,.61-1.49,2.66,2.66,0,0,1,1.75-.57h1.09v-.89a1.25,1.25,0,0,0-.35-1,1.46,1.46,0,0,0-1-.28,1.4,1.4,0,0,0-1,.36,1.17,1.17,0,0,0-.37.92h-.65a1.72,1.72,0,0,1,.57-1.33,2.06,2.06,0,0,1,1.46-.56,2,2,0,0,1,1.45.46,1.82,1.82,0,0,1,.51,1.4l0,3.11a4.27,4.27,0,0,0,.19,1.39v.07Zm-1.79-.49a1.75,1.75,0,0,0,1-.31A1.78,1.78,0,0,0,64,42.2l0-1.54-1,0a2,2,0,0,0-1.34.41,1.29,1.29,0,0,0-.44,1C61.15,42.93,61.54,43.33,62.32,43.32Z"/><path class="cls-2" d="M68.78,37.82a1.93,1.93,0,0,0-.41,0,1.21,1.21,0,0,0-.88.42A2.06,2.06,0,0,0,67,39.29l.27,4.37-.65,0-.4-6.33.64,0,.07,1a1.54,1.54,0,0,1,1.38-1.16.88.88,0,0,1,.4.05Z"/><path class="cls-2" d="M73.67,39.57,74.18,43l-.66.1-1.26-8.43,2.45-.37a2.34,2.34,0,0,1,1.86.41,2.6,2.6,0,0,1,.92,1.75,2.56,2.56,0,0,1-.35,1.93,2.38,2.38,0,0,1-1.69.92ZM73.58,39l1.79-.26A1.71,1.71,0,0,0,76.58,38a1.92,1.92,0,0,0,.25-1.44,2.05,2.05,0,0,0-.67-1.33,1.67,1.67,0,0,0-1.35-.32l-1.8.27Z"/><path class="cls-2" d="M80.75,41.88l-.64.13-1.79-8.82.65-.13Z"/><path class="cls-2" d="M86,40.65a4.51,4.51,0,0,1-.32-.82,2.11,2.11,0,0,1-.56.89,1.91,1.91,0,0,1-.9.5,1.7,1.7,0,0,1-1.35-.14,1.79,1.79,0,0,1-.77-1.17,1.84,1.84,0,0,1,.26-1.58,2.59,2.59,0,0,1,1.57-1L85,37.1l-.22-.86a1.25,1.25,0,0,0-.56-.86,1.68,1.68,0,0,0-1.91.53,1.19,1.19,0,0,0-.15,1l-.63.15a1.71,1.71,0,0,1,.24-1.42,2.14,2.14,0,0,1,1.3-.89,2,2,0,0,1,1.52.12,1.85,1.85,0,0,1,.82,1.24l.75,3a4.2,4.2,0,0,0,.51,1.32v.06Zm-1.85-.06a1.78,1.78,0,0,0,.91-.53,1.73,1.73,0,0,0,.43-.94l-.37-1.49-1,.25a2.09,2.09,0,0,0-1.21.71,1.26,1.26,0,0,0-.18,1.11A1,1,0,0,0,84.14,40.59Z"/><path class="cls-2" d="M87,32.07l.48,1.54,1-.31.17.56-1,.31,1.23,4a1.51,1.51,0,0,0,.37.7.57.57,0,0,0,.57.09,2.27,2.27,0,0,0,.43-.19l.19.55a1.73,1.73,0,0,1-.58.29c-.73.22-1.26-.17-1.58-1.16l-1.26-4.12-.93.29L86,34.09l.93-.29-.47-1.54Z"/><path class="cls-2" d="M95.16,37.7a3.85,3.85,0,0,1-.41-.78,2.08,2.08,0,0,1-.46.94,2,2,0,0,1-.85.59,1.69,1.69,0,0,1-1.36,0,2.06,2.06,0,0,1-.78-2.69,2.6,2.6,0,0,1,1.46-1.11l1-.38-.31-.83a1.24,1.24,0,0,0-.65-.8,1.69,1.69,0,0,0-1.84.73,1.15,1.15,0,0,0,0,1l-.61.22a1.69,1.69,0,0,1,.1-1.44,2,2,0,0,1,1.2-1,2,2,0,0,1,1.52,0,1.89,1.89,0,0,1,.94,1.15l1.06,2.93a4.32,4.32,0,0,0,.63,1.25l0,.07Zm-1.86.13a1.83,1.83,0,0,0,.86-.62,1.81,1.81,0,0,0,.34-1L94,34.79l-1,.35a2.09,2.09,0,0,0-1.13.83,1.32,1.32,0,0,0-.07,1.12A1,1,0,0,0,93.3,37.83Z"/><path class="cls-2" d="M25.16,37.54a.41.41,0,0,1-.26-.21l-4.41-7.59a.44.44,0,0,1,.16-.6.43.43,0,0,1,.59.16l4.41,7.6a.43.43,0,0,1-.16.59A.48.48,0,0,1,25.16,37.54Z"/><path class="cls-2" d="M20.76,29.93a.46.46,0,0,1-.26-.2.44.44,0,0,1,.15-.6l7.53-4.51a.45.45,0,0,1,.6.15.44.44,0,0,1-.15.6L21.1,29.88A.51.51,0,0,1,20.76,29.93Z"/><path class="cls-2" d="M34.8,37a.43.43,0,0,1-.27-.21l-4.4-7.59a.45.45,0,0,1,.15-.6.44.44,0,0,1,.6.16l4.4,7.6a.43.43,0,0,1-.16.59A.46.46,0,0,1,34.8,37Z"/><path class="cls-2" d="M27.26,41.54a.48.48,0,0,1-.27-.2.44.44,0,0,1,.15-.59l7.54-4.51a.43.43,0,0,1,.44.74l-7.53,4.51A.43.43,0,0,1,27.26,41.54Z"/></svg>