<svg id="Capa_1" data-name="Capa 1" xmlns="http://www.w3.org/2000/svg" viewBox="0 0 64.51 82.78"><defs><style>.cls-1{fill:#dd141d;isolation:isolate;}.cls-2{fill:#fff;}</style></defs><title>Sin título-1</title><path class="cls-1" d="M64.51,2.59a106,106,0,0,1-38.89,79.6,2.56,2.56,0,0,1-3.72-.48L0,51C10.08,42.83,23.32,24.32,22.62,1c0-.34,0-.68,0-1H62A2.55,2.55,0,0,1,64.51,2.59Z"/><path class="cls-2" d="M36,50.09,35,51.78l3,1.89-.36.57L30.4,49.71l1.24-2a2.38,2.38,0,0,1,1.53-1.18,2.51,2.51,0,0,1,1.9.44,2.62,2.62,0,0,1,1,1.1,2,2,0,0,1,.16,1.37l4,.43.06,0-.38.6Zm-1.59,1.36.95-1.51a1.52,1.52,0,0,0,.2-1.3,2.23,2.23,0,0,0-2.31-1.42,1.69,1.69,0,0,0-1.11.85l-.89,1.4Z"/><path class="cls-2" d="M42.26,46.64a2.17,2.17,0,0,1-1.47,1.2,3.14,3.14,0,0,1-2.14-.42L38,47.05a3.48,3.48,0,0,1-1.64-1.57,2,2,0,0,1,.09-1.85,1.91,1.91,0,0,1,1.34-1.07,3.29,3.29,0,0,1,2.08.49l.53.29-1.78,3.32.32.16a2.6,2.6,0,0,0,1.7.39,1.59,1.59,0,0,0,1.14-.88,1.87,1.87,0,0,0,.12-1.66l.54-.09A2.18,2.18,0,0,1,42.26,46.64ZM37,43.92a1.36,1.36,0,0,0-.08,1.29,2.67,2.67,0,0,0,1.18,1.15l1.47-2.74-.15-.08C38.22,43,37.41,43.08,37,43.92Z"/><path class="cls-2" d="M44.25,41.27a1.38,1.38,0,0,0,.09-1.11,1.63,1.63,0,0,0-.83-.81l.27-.57A2.17,2.17,0,0,1,44.9,40a2,2,0,0,1-.1,1.54,2,2,0,0,1-1.37,1.25,3.43,3.43,0,0,1-2.2-.36l-.7-.33a3.48,3.48,0,0,1-1.75-1.44,2,2,0,0,1,0-1.86A1.94,1.94,0,0,1,40,37.67a2.55,2.55,0,0,1,1.75.17l-.26.57a2,2,0,0,0-1.27-.15,1.33,1.33,0,0,0-.83.77,1.42,1.42,0,0,0,0,1.36,3,3,0,0,0,1.42,1.09l.65.31a3,3,0,0,0,1.78.37A1.42,1.42,0,0,0,44.25,41.27Z"/><path class="cls-2" d="M47.42,34.92a4.17,4.17,0,0,1-.86-.21,2.09,2.09,0,0,1,.41,1,2,2,0,0,1-.11,1,1.76,1.76,0,0,1-.9,1,1.79,1.79,0,0,1-1.39-.06,1.85,1.85,0,0,1-1.15-1.12,2.65,2.65,0,0,1,.12-1.84l.4-1-.83-.32a1.21,1.21,0,0,0-1,0,1.42,1.42,0,0,0-.63.81,1.37,1.37,0,0,0,0,1.05,1.14,1.14,0,0,0,.7.69l-.24.61a1.76,1.76,0,0,1-1-1,2.09,2.09,0,0,1,0-1.57,2,2,0,0,1,1-1.17,1.83,1.83,0,0,1,1.48.05l2.9,1.12a4.33,4.33,0,0,0,1.37.35l.06,0ZM46.3,36.4a1.75,1.75,0,0,0-.42-1.95l-1.44-.56-.37,1A2,2,0,0,0,44,36.25a1.28,1.28,0,0,0,.8.79A1,1,0,0,0,46.3,36.4Z"/><path class="cls-2" d="M43.61,28.34a2,2,0,0,0-.16.38,1.21,1.21,0,0,0,.06,1,2.06,2.06,0,0,0,.82.81l4.15,1.37-.2.62-6-2,.2-.61.9.29a1.55,1.55,0,0,1-.56-1.72.87.87,0,0,1,.2-.35Z"/><path class="cls-2" d="M46,28.21a4,4,0,0,1-2-1.09,1.76,1.76,0,0,1-.32-1.69,1.74,1.74,0,0,1,1.4-1.31l-.85-.27.16-.58L50.69,25a2.52,2.52,0,0,1,1.54,1,2,2,0,0,1,.17,1.68,2.51,2.51,0,0,1-.53,1,2.07,2.07,0,0,1-.82.61l-.37-.41a1.94,1.94,0,0,0,1.11-1.26,1.42,1.42,0,0,0-.1-1.22,1.89,1.89,0,0,0-1.14-.69l-1-.27a1.76,1.76,0,0,1,.45,1.8,1.73,1.73,0,0,1-1.11,1.27,3.82,3.82,0,0,1-2.22,0Zm.74-.48a3.4,3.4,0,0,0,1.83.11,1.28,1.28,0,0,0,.86-1,1.51,1.51,0,0,0-.58-1.69l-3.12-.86a1.53,1.53,0,0,0-1.44,1.14,1.3,1.3,0,0,0,.24,1.28,3.35,3.35,0,0,0,1.6.82Z"/><path class="cls-2" d="M51.66,19.66a3.7,3.7,0,0,1-.88-.06,2.09,2.09,0,0,1,.62,1.92,1.73,1.73,0,0,1-.71,1.16,1.79,1.79,0,0,1-1.38.18A1.82,1.82,0,0,1,48,21.94a2.6,2.6,0,0,1-.19-1.83L48,19.05l-.87-.18a1.24,1.24,0,0,0-1,.13,1.48,1.48,0,0,0-.49.91,1.4,1.4,0,0,0,.15,1,1.14,1.14,0,0,0,.81.56l-.14.64a1.71,1.71,0,0,1-1.17-.84,2.05,2.05,0,0,1-.24-1.55,2,2,0,0,1,.76-1.32,1.83,1.83,0,0,1,1.47-.2l3,.62a4.38,4.38,0,0,0,1.4.11l.07,0Zm-.86,1.65a1.77,1.77,0,0,0-.74-1.85l-1.51-.31-.2,1a2,2,0,0,0,.11,1.39,1.32,1.32,0,0,0,.93.65A1,1,0,0,0,50.8,21.31Z"/><path class="cls-2" d="M46.8,13.82a2.59,2.59,0,0,0-.1.4,1.23,1.23,0,0,0,.23.95,2.12,2.12,0,0,0,.94.66l4.33.65-.1.65-6.27-.95.09-.63.94.13a1.53,1.53,0,0,1-.83-1.6.76.76,0,0,1,.13-.37Z"/><path class="cls-2" d="M33.17,64.51,29,68.68a1,1,0,0,1-1.38,0l-8-7.9a1,1,0,0,1,0-1.38l4.13-4.18a1,1,0,0,1,1.38,0l8,7.9A1,1,0,0,1,33.17,64.51Zm-13-4.65a.32.32,0,0,0,0,.47l8,7.91a.33.33,0,0,0,.47,0l4.14-4.18a.33.33,0,0,0,0-.47l-8-7.91a.33.33,0,0,0-.47,0Z"/><rect class="cls-2" x="25.04" y="63.83" width="7.18" height="0.64" transform="translate(-37.1 39.37) rotate(-45.3)"/><rect class="cls-2" x="20.02" y="58.86" width="7.18" height="0.64" transform="translate(-35.06 34.33) rotate(-45.3)"/><path class="cls-2" d="M30.53,66a1,1,0,1,1-1.4-1.39,1,1,0,0,1,1.39,0A1,1,0,0,1,30.53,66Zm-1-.94a.36.36,0,0,0,0,.49.35.35,0,0,0,.5,0,.36.36,0,0,0,0-.49A.35.35,0,0,0,29.58,65.05Z"/></svg>