<svg id="Capa_1" data-name="Capa 1" xmlns="http://www.w3.org/2000/svg" viewBox="0 0 64.89 84.42"><defs><style>.cls-1{fill:#dd141d;isolation:isolate;}.cls-2{fill:#fff;}</style></defs><title>Sin título-1</title><path class="cls-1" d="M64.89,53.23,42.77,83.39a2.56,2.56,0,0,1-3.69.45A106,106,0,0,1,0,4.09,2.55,2.55,0,0,1,2.55,1.5L41.41,0c0,.33,0,.67,0,1C41.4,25.85,50.74,41.25,64.89,53.23Z"/><path class="cls-2" d="M24.37,44.18l-3.08,1.6L21,45.19l7.57-3.94,1.14,2.2a2.3,2.3,0,0,1,.22,1.89,2.55,2.55,0,0,1-1.35,1.44,2.57,2.57,0,0,1-1.95.31,2.41,2.41,0,0,1-1.41-1.31Zm.55-.29.84,1.61a1.69,1.69,0,0,0,1,.93,2.32,2.32,0,0,0,2.48-1.3,1.63,1.63,0,0,0-.13-1.38l-.84-1.61Z"/><path class="cls-2" d="M25.85,53.88a3.86,3.86,0,0,1,.69-.56,2.06,2.06,0,0,1-1-.26,1.9,1.9,0,0,1-.74-.72A1.66,1.66,0,0,1,24.51,51a1.75,1.75,0,0,1,.89-1.07A1.83,1.83,0,0,1,27,49.71a2.63,2.63,0,0,1,1.38,1.21l.57.94.75-.46a1.26,1.26,0,0,0,.66-.8,1.67,1.67,0,0,0-1.07-1.66,1.18,1.18,0,0,0-1,.14L28,48.52a1.71,1.71,0,0,1,1.43-.18,2.09,2.09,0,0,1,1.23,1A2,2,0,0,1,31,50.8,1.93,1.93,0,0,1,30,52l-2.66,1.61a4.52,4.52,0,0,0-1.1.87l-.06,0Zm-.5-1.79a1.8,1.8,0,0,0,.79.71,1.75,1.75,0,0,0,1,.14l1.32-.8-.54-.88a2,2,0,0,0-1-.94,1.25,1.25,0,0,0-1.12.15A1,1,0,0,0,25.35,52.09Z"/><path class="cls-2" d="M30,53.91A3.93,3.93,0,0,1,32.1,53a1.77,1.77,0,0,1,1.5.84,1.72,1.72,0,0,1,.11,1.91l.75-.48.34.5-5.34,3.73a2.51,2.51,0,0,1-1.75.55,2,2,0,0,1-1.39-1,2.32,2.32,0,0,1-.39-1,2,2,0,0,1,.05-1l.56,0a1.93,1.93,0,0,0,.25,1.66,1.44,1.44,0,0,0,1,.71A2,2,0,0,0,29.05,59l.83-.57a1.77,1.77,0,0,1-1.67-.81A1.73,1.73,0,0,1,28,56,3.78,3.78,0,0,1,29.4,54.3Zm-.11.87a3.42,3.42,0,0,0-1.25,1.33,1.27,1.27,0,0,0,.19,1.28,1.52,1.52,0,0,0,1.68.65l2.65-1.86a1.52,1.52,0,0,0,0-1.83A1.26,1.26,0,0,0,32,53.72a3.33,3.33,0,0,0-1.66.7Z"/><path class="cls-2" d="M32.93,63.7a5,5,0,0,1,.62-.64,2.07,2.07,0,0,1-1-.13,2,2,0,0,1-.83-.62A1.69,1.69,0,0,1,31.24,61,1.8,1.8,0,0,1,32,59.85a1.88,1.88,0,0,1,1.56-.43,2.69,2.69,0,0,1,1.52,1l.68.85.69-.55a1.19,1.19,0,0,0,.55-.87,1.43,1.43,0,0,0-.38-1,1.41,1.41,0,0,0-.89-.55,1.15,1.15,0,0,0-1,.26l-.41-.51a1.76,1.76,0,0,1,1.4-.37,2.05,2.05,0,0,1,1.34.81A2,2,0,0,1,37.62,60a1.84,1.84,0,0,1-.79,1.26L34.4,63.19a4.44,4.44,0,0,0-1,1l-.06,0ZM32.22,62a1.66,1.66,0,0,0,.86.6,1.72,1.72,0,0,0,1,0l1.2-1-.64-.8A2.12,2.12,0,0,0,33.52,60a1.32,1.32,0,0,0-1.09.3A1,1,0,0,0,32.22,62Z"/><path class="cls-2" d="M40.53,63.72a1.88,1.88,0,0,0-.24-.33,1.23,1.23,0,0,0-.87-.44,2.08,2.08,0,0,0-1.12.3L35,66.15l-.43-.49,4.74-4.2.42.47-.7.64a1.53,1.53,0,0,1,1.76.38.79.79,0,0,1,.21.35Z"/><path class="cls-2" d="M15.65,33.66l-3.31-13a1.43,1.43,0,0,1,1-1.74L20.89,17a1.44,1.44,0,0,1,1.74,1l3.31,13a1.44,1.44,0,0,1-1,1.75l-7.52,1.91A1.42,1.42,0,0,1,15.65,33.66Zm6.19-15.41a.62.62,0,0,0-.75-.44l-7.52,1.92a.6.6,0,0,0-.44.74l3.31,13a.62.62,0,0,0,.75.44L24.71,32a.62.62,0,0,0,.44-.74Z"/><path class="cls-2" d="M16.85,26.44a2.36,2.36,0,1,1,2.87,1.7A2.37,2.37,0,0,1,16.85,26.44Zm3.78-1a1.54,1.54,0,1,0-1.11,1.88A1.54,1.54,0,0,0,20.63,25.47Z"/><path class="cls-2" d="M19.4,15.65,18.24,11.1a.41.41,0,0,1,.79-.2l1.16,4.55a.41.41,0,0,1-.29.5A.42.42,0,0,1,19.4,15.65Z"/><path class="cls-2" d="M16.13,16.48l-.84-3.3a.41.41,0,0,1,.29-.5.42.42,0,0,1,.5.3l.84,3.3a.41.41,0,1,1-.79.2Z"/><path class="cls-2" d="M12.86,17.32l-.42-1.65a.41.41,0,0,1,.29-.5.41.41,0,0,1,.5.3l.42,1.65a.41.41,0,0,1-.29.5A.42.42,0,0,1,12.86,17.32Z"/></svg>