<svg xmlns="http://www.w3.org/2000/svg" xmlns:xlink="http://www.w3.org/1999/xlink" width="11.844" height="8.406" viewBox="0 0 11.844 8.406"><defs><style>.a{fill:none;}.b{clip-path:url(#a);}.c{fill:#55ab37;fill-rule:evenodd;}</style><clipPath id="a"><path class="a" d="M0-21.854H11.844v8.406H0Z" transform="translate(0 21.854)"/></clipPath></defs><g class="b"><g transform="translate(0 0)"><path class="c" d="M-18.412-3.131l-6.114,6.113a1.139,1.139,0,0,1-.809.336,1.139,1.139,0,0,1-.81-.336L-29.584-.457a1.152,1.152,0,0,1-.337-.812,1.147,1.147,0,0,1,1.146-1.145,1.142,1.142,0,0,1,.811.336L-25.335.55l5.3-5.3a1.143,1.143,0,0,1,.811-.337,1.146,1.146,0,0,1,1.145,1.147,1.14,1.14,0,0,1-.335.811" transform="translate(29.921 5.089)"/></g></g></svg>