<svg xmlns="http://www.w3.org/2000/svg" width="30.79" height="30.799" viewBox="0 0 30.79 30.799"><defs><style>.a{fill:#07a033;fill-rule:evenodd;}</style></defs><path class="a" d="M15.395,0A15.4,15.4,0,1,0,30.79,15.4,15.414,15.414,0,0,0,15.395,0Zm0,28.775A13.376,13.376,0,1,1,28.767,15.4,13.386,13.386,0,0,1,15.395,28.775Zm5.571-18.421-7.932,7.934-3.211-3.2A1.006,1.006,0,0,0,8.4,16.514l3.915,3.931a1.021,1.021,0,0,0,.718.293,1.047,1.047,0,0,0,.718-.293h0l8.65-8.653a1.016,1.016,0,0,0-1.437-1.437Z" transform="translate(0 0)"/></svg>