<svg xmlns="http://www.w3.org/2000/svg" width="27.483" height="27.483" viewBox="0 0 27.483 27.483"><defs><style>.a{fill:#ed1c27;}.b{fill:#dadada;}.c{fill:#dedddc;}</style></defs><g transform="translate(0)"><ellipse class="a" cx="13.741" cy="13.741" rx="13.741" ry="13.741"/></g><g transform="translate(12.36 5.043)"><path class="b" d="M221.952,424.3a1.358,1.358,0,1,0-2.71-.191,1.314,1.314,0,0,0,0,.232v14.45a1.358,1.358,0,1,0,2.71.19,1.31,1.31,0,0,0,0-.232Z" transform="translate(-219.239 -422.845)"/></g><g transform="translate(4.999 12.366)"><path class="c" d="M228.794,429.247l-14.491.041a1.358,1.358,0,1,0-.274,2.7,1.312,1.312,0,0,0,.232,0l14.491-.041a1.358,1.358,0,1,0,.274-2.7A1.312,1.312,0,0,0,228.794,429.247Z" transform="translate(-212.807 -429.244)"/></g></svg>