<svg xmlns="http://www.w3.org/2000/svg" xmlns:xlink="http://www.w3.org/1999/xlink" width="74.757" height="71.212" viewBox="0 0 74.757 71.212"><defs><style>.a{fill:#c22a22;}.b{fill:#dd141d;}.c,.d{fill:#fff;}.c{opacity:0.072;}.d{stroke:#fff;stroke-width:0.1px;font-size:10.5px;font-family:RobotoCondensed-Regular, Roboto Condensed;}.e{filter:url(#e);}.f{filter:url(#c);}.g{filter:url(#a);}</style><filter id="a" x="0" y="0" width="74.757" height="71.212" filterUnits="userSpaceOnUse"><feOffset input="SourceAlpha"/><feGaussianBlur stdDeviation="2" result="b"/><feFlood flood-opacity="0.302"/><feComposite operator="in" in2="b"/><feComposite in="SourceGraphic"/></filter><filter id="c" x="6.848" y="6.963" width="56.877" height="56.877" filterUnits="userSpaceOnUse"><feOffset input="SourceAlpha"/><feGaussianBlur stdDeviation="1" result="d"/><feFlood flood-opacity="0.502"/><feComposite operator="in" in2="d"/><feComposite in="SourceGraphic"/></filter><filter id="e" x="17.465" y="20.37" width="45.772" height="42.95" filterUnits="userSpaceOnUse"><feOffset input="SourceAlpha"/><feGaussianBlur stdDeviation="1" result="f"/><feFlood flood-opacity="0.502"/><feComposite operator="in" in2="f"/><feComposite in="SourceGraphic"/></filter></defs><g transform="translate(-252.853 -500.751)"><g class="g" transform="matrix(1, 0, 0, 1, 252.85, 500.75)"><path class="a" d="M-78.665-745.142a30.194,30.194,0,0,1,42.3,1.637,29.324,29.324,0,0,1,2.638,36.968,8.161,8.161,0,0,0,6.447,4.206,1.872,1.872,0,0,1,1.709,1.366,1.848,1.848,0,0,1-.773,2.035c-6.558,4.313-13.9,3.111-18.142,1.787a30.382,30.382,0,0,1-18.378,3.02,29.708,29.708,0,0,1-17.456-9.169A29.427,29.427,0,0,1-78.665-745.142Z" transform="translate(94.26 759)"/></g><g transform="translate(262.701 510.714)"><g transform="translate(0 0)"><g class="f" transform="matrix(1, 0, 0, 1, -9.85, -9.96)"><circle class="b" cx="25.439" cy="25.439" r="25.439" transform="translate(9.85 9.96)"/></g></g><g class="e" transform="matrix(1, 0, 0, 1, -9.85, -9.96)"><path class="c" d="M41.744,7.565a23.273,23.273,0,0,1,4.014,13.188A23.951,23.951,0,0,1,21.623,44.515,24.211,24.211,0,0,1,5.985,38.744C6.276,38.945,41.769,8.045,41.744,7.565Z" transform="translate(14.48 15.81)"/></g><text class="d" transform="translate(26.505 23.359)"><tspan x="-21.667" y="0">¿Necesita </tspan><tspan x="-15.083" y="11">Ayuda?</tspan></text></g></g></svg>