<svg xmlns="http://www.w3.org/2000/svg" width="36.057" height="34.253" viewBox="0 0 36.057 34.253"><defs><style>.a{fill:#dd141d;}</style></defs><g transform="translate(-2 -5)"><path class="a" d="M20,5h1.2V8.606H20Z" transform="translate(-7.183 0)"/><path class="a" d="M0,0H1.2V3.606H0Z" transform="translate(7.468 7.713) rotate(-45)"/><path class="a" d="M0,0H3.606V1.2H0Z" transform="translate(15.966 9.414) rotate(-45)"/><path class="a" d="M35.052,30.226h-.194L32.009,23.1a2.99,2.99,0,0,0-2.79-1.889H24.836v-.6a3.008,3.008,0,0,0-3-3H16.423V17a3,3,0,0,0-6.01,0v.6H5a3.008,3.008,0,0,0-3,3V36.235a3.008,3.008,0,0,0,3,3H7.457a4.2,4.2,0,0,0,8.317,0H26.687a4.2,4.2,0,0,0,8.317,0h1.25a1.8,1.8,0,0,0,1.8-1.8V33.231a3.008,3.008,0,0,0-3-3Zm-5.834-7.812a1.793,1.793,0,0,1,1.674,1.133l2.672,6.679H24.836V22.413ZM11.615,17a1.8,1.8,0,1,1,3.606,0v.6H11.615Zm0,24.639a3,3,0,1,1,3-3A3,3,0,0,1,11.615,41.644Zm12.019-3.606h-7.86a4.2,4.2,0,0,0-8.317,0H5a1.8,1.8,0,0,1-1.8-1.8V20.61a1.8,1.8,0,0,1,1.8-1.8H21.831a1.8,1.8,0,0,1,1.8,1.8Zm7.211,3.606a3,3,0,1,1,3-3A3,3,0,0,1,30.846,41.644Zm6.01-4.207a.6.6,0,0,1-.6.6H35a4.2,4.2,0,0,0-8.317,0H24.836v-6.61H35.052a1.8,1.8,0,0,1,1.8,1.8Z" transform="translate(0 -3.591)"/><path class="a" d="M21.615,29.606h-2.4V27.2a1.2,1.2,0,0,0-1.2-1.2h-1.2a1.2,1.2,0,0,0-1.2,1.2v2.4H13.2a1.2,1.2,0,0,0-1.2,1.2v1.2a1.2,1.2,0,0,0,1.2,1.2h2.4v2.4a1.2,1.2,0,0,0,1.2,1.2h1.2a1.2,1.2,0,0,0,1.2-1.2v-2.4h2.4a1.2,1.2,0,0,0,1.2-1.2v-1.2A1.2,1.2,0,0,0,21.615,29.606Zm0,2.4h-2.4a1.2,1.2,0,0,0-1.2,1.2v2.4h-1.2v-2.4a1.2,1.2,0,0,0-1.2-1.2H13.2v-1.2h2.4a1.2,1.2,0,0,0,1.2-1.2V27.2h1.2v2.4a1.2,1.2,0,0,0,1.2,1.2h2.4Z" transform="translate(-3.99 -8.38)"/></g></svg>