<svg xmlns="http://www.w3.org/2000/svg" width="15" height="15" viewBox="0 0 15 15"><defs><style>.a{fill:#575757;}.b{fill:#e9e9e9;}</style></defs><g transform="translate(-260 -482)"><circle class="a" cx="7.5" cy="7.5" r="7.5" transform="translate(260 482)"/><path class="b" d="M138.216,84.519a2.39,2.39,0,0,1,.406-1.277,3.125,3.125,0,0,1,1.186-1.071,3.747,3.747,0,0,1,1.819-.424,3.9,3.9,0,0,1,1.706.355,2.764,2.764,0,0,1,1.143.965,2.36,2.36,0,0,1,.4,1.326,2.043,2.043,0,0,1-.23.988,3.025,3.025,0,0,1-.546.733q-.317.308-1.136,1.038a4.618,4.618,0,0,0-.363.362,1.464,1.464,0,0,0-.2.285,1.386,1.386,0,0,0-.1.259q-.037.129-.11.454a.741.741,0,0,1-.793.69.812.812,0,0,1-.583-.226.883.883,0,0,1-.237-.67,2.345,2.345,0,0,1,.633-1.681,10.5,10.5,0,0,1,.773-.733q.426-.371.616-.56a1.9,1.9,0,0,0,.32-.421,1.015,1.015,0,0,0,.13-.5,1.17,1.17,0,0,0-.4-.9,1.452,1.452,0,0,0-1.023-.365,1.419,1.419,0,0,0-1.08.368,2.931,2.931,0,0,0-.586,1.084q-.227.75-.86.749a.847.847,0,0,1-.63-.262A.8.8,0,0,1,138.216,84.519Zm3.252,7.269a1.052,1.052,0,0,1-.71-.262.916.916,0,0,1-.3-.733.942.942,0,0,1,.293-.7.993.993,0,0,1,.72-.285.976.976,0,0,1,.993.988.924.924,0,0,1-.3.73A1.015,1.015,0,0,1,141.468,91.789Z" transform="translate(125.952 402.732)"/></g></svg>