<?xml version="1.0" encoding="utf-8"?>
<!-- Generator: Adobe Illustrator 21.0.2, SVG Export Plug-In . SVG Version: 6.00 Build 0)  -->
<svg version="1.1" id="Capa_1" xmlns="http://www.w3.org/2000/svg" xmlns:xlink="http://www.w3.org/1999/xlink" x="0px" y="0px"
	 viewBox="-17.4 75.7 448.9 577.3" style="enable-background:new -17.4 75.7 448.9 577.3;" xml:space="preserve">
<style type="text/css">
	.st0{fill:#FFFFFF;}
</style>
<g>
	<path class="st0" d="M221.1,180.4c22.4-6.3,38.9-27,38.9-51.4c0-29.4-23.9-53.3-53.3-53.3c-29.4,0-53.3,23.9-53.3,53.3
		c0,29.4,23.9,53.4,53.3,53.4C211.7,182.4,216.5,181.7,221.1,180.4 M206.7,97.4c17.4,0,31.6,14.2,31.6,31.6
		c0,17.4-14.2,31.6-31.6,31.6c-17.4,0-31.6-14.2-31.6-31.6C175.1,111.6,189.3,97.4,206.7,97.4z"/>
	<path class="st0" d="M413.5,549.7h-17.8V396.8c0-104.1-84.7-188.7-188.7-188.7c-104.1,0-188.7,84.7-188.7,188.7v152.9H0.5
		c-9.9,0-17.9,8-17.9,17.9c0,9.9,8,17.9,17.9,17.9h35.7h93.5c8.2,35.2,39.7,61.5,77.3,61.5c37.6,0,69.1-26.3,77.2-61.5h93.5h35.7
		c9.9,0,17.9-8,17.9-17.9C431.4,557.7,423.4,549.7,413.5,549.7z M207,624.3c-24.4,0-45.5-16.5-55-40.2h110
		C252.5,607.8,231.4,624.3,207,624.3z M43.6,532.3h201.5c7.1,0,12.8-5.7,12.8-12.8c0-7.1-5.7-12.8-12.8-12.8H43.6v-110
		c0-90.1,73.3-163.4,163.4-163.4c90.1,0,163.4,73.3,163.4,163.4v110h-49.4c-7.1,0-12.8,5.7-12.8,12.8c0,7.1,5.7,12.8,12.8,12.8h49.4
		v27.9H43.6V532.3z"/>
</g>
</svg>
