<svg xmlns="http://www.w3.org/2000/svg" width="34.145" height="32.508" viewBox="0 0 34.145 32.508"><defs><style>.a{fill:#dd141d;}</style></defs><g transform="translate(0 0)"><path class="a" d="M34.1,29.724A3.984,3.984,0,0,0,30.73,26.35V25.315a5.023,5.023,0,0,0-4.837-5.179,5.042,5.042,0,0,0-4.837,5.024h.033l-.033.006V36.381a6.257,6.257,0,0,1-5.975,6.5,6.26,6.26,0,0,1-5.975-6.5V35.41c.825,0,1.707-.6,1.707-2.276V31.7a8.07,8.07,0,0,0,6.26-7.626V22.89H15.934l-.024-7.406A2.848,2.848,0,0,0,13.569,12.7a1.7,1.7,0,1,0-.039,1.16,1.707,1.707,0,0,1,1.24,1.629l.026,7.4H13.658v1.2a4.525,4.525,0,0,1-3.276,4.246,5.175,5.175,0,0,1-3.13,0,4.523,4.523,0,0,1-3.269-4.246v-1.2H2.276v-7.4A1.707,1.707,0,0,1,3.54,13.851,1.715,1.715,0,1,0,3.5,12.7a2.845,2.845,0,0,0-2.366,2.8v7.4H0v1.184A8.07,8.07,0,0,0,6.26,31.7v1.431c0,1.678.882,2.276,1.707,2.276v.971a7.4,7.4,0,0,0,7.113,7.635,7.4,7.4,0,0,0,7.113-7.635V25.194a3.894,3.894,0,0,1,3.7-3.917,3.885,3.885,0,0,1,3.7,4.04V26.35A3.984,3.984,0,1,0,34.1,29.724ZM11.951,13.785a.569.569,0,1,1,.569-.569A.569.569,0,0,1,11.951,13.785ZM5.122,12.647a.569.569,0,1,1-.569.569A.569.569,0,0,1,5.122,12.647ZM1.138,24.074v-.046H2.845v.065a5.654,5.654,0,0,0,4.062,5.328,6.332,6.332,0,0,0,3.823,0A5.655,5.655,0,0,0,14.8,24.093v-.065h1.138v.046a6.976,6.976,0,0,1-5.8,6.625,8.118,8.118,0,0,1-2.4.118,7.434,7.434,0,0,1-.786-.119A6.974,6.974,0,0,1,1.138,24.074Zm6.829,10.2c-.512,0-.569-.8-.569-1.138V31.926c.046.006.092.008.138.013l.171.016c.269.024.541.04.814.04H8.55c.273,0,.544-.017.812-.04l.176-.016c.045-.005.092-.007.137-.013v1.208c0,.341-.057,1.138-.569,1.138Zm22.194-1.138a2.845,2.845,0,1,1,2.845-2.845A2.845,2.845,0,0,1,30.161,33.133Z" transform="translate(0 -11.508)"/></g></svg>