<?xml version="1.0" encoding="utf-8"?>
<!-- Generator: Adobe Illustrator 21.0.2, SVG Export Plug-In . SVG Version: 6.00 Build 0)  -->
<svg version="1.1" id="Capa_1" xmlns="http://www.w3.org/2000/svg" xmlns:xlink="http://www.w3.org/1999/xlink" x="0px" y="0px"
	 viewBox="0 0 573.9 59.5" style="enable-background:new 0 0 573.9 59.5;" xml:space="preserve">
<style type="text/css">
	.st0{fill:#FFFFFF;}
</style>
<path class="st0" d="M245.2,3.1c-8.7,2.3-5.3,10.1,2.2,7.4c8.5-2.5,17.9-2.8,23.8-2.6c13.1,0.6,25.7,5.3,26.2,9.5
	c0.3,6.8-7.1,9.1-25.8,9.5c-5.4,0-5.3,6.5,0.4,6.5c8.9,0.3,17.8-0.7,24.9-3.3c6.5-2.4,10.6-6.5,10.6-12.8
	C305.5,5.6,276-5.1,245.2,3.1 M253.4,21.5v32.7c0,4.9,9.3,5.1,9.3,0.2V21.6C262.7,16.5,253.4,16.5,253.4,21.5z M417.1,0
	c-14.4-0.3-32.8,37.3-37.7,49.7c-2.7,6.9,5.9,11.9,8.6,4.9c4.5-11.6,20-43.9,29.2-43.9c9.2,0,24.5,32.3,29,43.9
	c2.7,6.9,11.3,2,8.6-4.9C449.9,37.3,431.5-0.3,417.1,0z M573.3,49.7C568.5,37.3,550-0.3,535.6,0c-14.4-0.3-32.8,37.3-37.7,49.7
	c-2.7,6.9,5.9,11.9,8.6,4.9c4.6-11.6,20-43.9,29.2-43.9c9.2,0,24.5,32.3,29,43.9C567.5,61.6,576.1,56.7,573.3,49.7z M317.9,29.7
	v-0.5c0-0.1,0-0.2,0-0.4L317.9,29.7z M364.7,49.3c-8.7,1.5-35.1,3-36.9-16.5l0-8.6l0.1-18.7c0-7-10.1-6.9-10.1,0.1v23.6
	c0.9,31.4,33.1,30,48.4,27.8C372.6,56.1,371.3,47.6,364.7,49.3z M498.3,0.2l-40,0c-9.1,0-9.1,7.6-0.2,7.6l15.2,0v44.8
	c0,7,9.4,7.3,9.4,0.3v-45l15.3,0C506.6,7.8,507,0.2,498.3,0.2z"/>
<path class="st0" d="M110.2,1.5C95.8,1.1,77.4,38.7,72.5,51.2c-2.7,6.9,5.9,11.9,8.6,4.9c4.5-11.6,20-43.9,29.2-43.9
	c9.2,0,24.5,32.3,29,43.9c2.7,6.9,11.3,2,8.6-4.9C143,38.7,124.6,1.1,110.2,1.5 M3.8,4.1c-6.4,2.7-4.2,10.6,2.8,7.5
	C18,8.8,29,8.8,40.2,11.6C49.4,13.9,59,22,59,30.6c-0.7,21.5-29.1,22.3-40.6,19.5V23.4c0-6.4-8.2-6.4-8.2,0v26.8
	c0,5.4,2.8,7.3,6.4,8.2c9.3,2.1,50.5,4.4,52.4-27.8C66.9-2.1,15.9-1,3.8,4.1z M233.2,7.3c0-7.4-9.3-7.4-9.3-0.1v46.9
	c0,7.1,9.3,7.3,9.3,0.3V7.3z M205.1,4.8c-4.2,11.6-18.5,43.9-27,43.9c-8.5,0-22.6-32.3-26.8-43.9c-2.5-6.9-10.5-2-7.9,4.9
	c4.5,12.5,21.5,50,34.9,49.7c13.3,0.3,30.3-37.3,34.9-49.7C215.6,2.8,207.6-2.1,205.1,4.8z"/>
</svg>
